<svg version="1.1" xmlns="http://www.w3.org/2000/svg" xmlns:xlink="http://www.w3.org/1999/xlink" width="24px" height="24px" viewBox="0,0,256,256"><g fill="#d784bf" fill-rule="nonzero" stroke="none" stroke-width="1" stroke-linecap="butt" stroke-linejoin="miter" stroke-miterlimit="10" stroke-dasharray="" stroke-dashoffset="0" font-family="none" font-weight="none" font-size="none" text-anchor="none" style="mix-blend-mode: normal"><g transform="scale(10.66667,10.66667)"><path d="M11,15h2v2h-2zM11,7h2v6h-2zM11.99,2c-5.52,0 -9.99,4.48 -9.99,10c0,5.52 4.47,10 9.99,10c5.53,0 10.01,-4.48 10.01,-10c0,-5.52 -4.48,-10 -10.01,-10zM12,20c-4.42,0 -8,-3.58 -8,-8c0,-4.42 3.58,-8 8,-8c4.42,0 8,3.58 8,8c0,4.42 -3.58,8 -8,8z"></path></g></g></svg>