<?xml version="1.0" encoding="UTF-8"?>
<svg xmlns="http://www.w3.org/2000/svg" xmlns:xlink="http://www.w3.org/1999/xlink" width="40px" height="20px" viewBox="0 0 40 20" version="1.1">
<g id="surface1">
<path style=" stroke:none;fill-rule:evenodd;fill:rgb(0%,0%,0%);fill-opacity:1;" d="M 10.003906 0 L 10.015625 0 C 11.738281 0 13.363281 0.441406 14.78125 1.21875 L 31.214844 1.21875 C 33.628906 1.21875 35.824219 2.207031 37.417969 3.800781 C 39.007812 5.390625 39.996094 7.585938 39.996094 10 C 39.996094 12.414062 39.007812 14.609375 37.417969 16.203125 L 37.386719 16.230469 C 35.796875 17.804688 33.613281 18.78125 31.214844 18.78125 L 14.785156 18.78125 C 13.367188 19.558594 11.742188 20 10.015625 20 L 10.003906 20 C 7.253906 20 4.753906 18.875 2.941406 17.0625 C 1.128906 15.25 0.00390625 12.75 0.00390625 10 C 0.00390625 7.25 1.128906 4.746094 2.9375 2.9375 L 3.011719 2.871094 C 4.820312 1.097656 7.289062 0 10.003906 0 Z M 9.539062 4.25 C 9.539062 4.097656 9.601562 3.960938 9.699219 3.859375 C 9.914062 3.644531 10.269531 3.644531 10.484375 3.859375 L 10.496094 3.871094 C 10.589844 3.972656 10.644531 4.109375 10.644531 4.25 L 10.644531 5.261719 C 10.644531 5.414062 10.582031 5.554688 10.484375 5.652344 C 10.269531 5.867188 9.914062 5.867188 9.699219 5.652344 C 9.597656 5.550781 9.539062 5.410156 9.539062 5.261719 Z M 10.011719 6.6875 C 10.925781 6.6875 11.753906 7.058594 12.355469 7.65625 C 12.953125 8.257812 13.324219 9.085938 13.324219 10 C 13.324219 10.914062 12.953125 11.742188 12.355469 12.34375 C 11.753906 12.941406 10.925781 13.3125 10.011719 13.3125 C 9.09375 13.3125 8.265625 12.941406 7.667969 12.34375 C 7.066406 11.742188 6.695312 10.914062 6.695312 10 C 6.695312 9.085938 7.066406 8.257812 7.667969 7.65625 C 8.265625 7.058594 9.097656 6.6875 10.011719 6.6875 Z M 5.609375 6.269531 C 5.507812 6.164062 5.449219 6.023438 5.449219 5.878906 C 5.449219 5.574219 5.699219 5.324219 6.003906 5.324219 C 6.144531 5.324219 6.285156 5.378906 6.394531 5.484375 L 7.109375 6.199219 C 7.214844 6.304688 7.273438 6.445312 7.273438 6.59375 C 7.273438 6.734375 7.21875 6.875 7.109375 6.984375 C 7.003906 7.085938 6.863281 7.144531 6.71875 7.144531 C 6.578125 7.144531 6.4375 7.089844 6.328125 6.984375 Z M 4.261719 10.472656 C 4.109375 10.472656 3.96875 10.410156 3.871094 10.308594 C 3.652344 10.09375 3.65625 9.742188 3.871094 9.527344 L 3.882812 9.515625 C 3.984375 9.417969 4.121094 9.363281 4.261719 9.363281 L 5.273438 9.363281 C 5.417969 9.363281 5.558594 9.421875 5.664062 9.527344 C 5.765625 9.632812 5.824219 9.773438 5.824219 9.917969 C 5.824219 10.070312 5.761719 10.210938 5.664062 10.308594 C 5.558594 10.414062 5.417969 10.472656 5.273438 10.472656 Z M 6.277344 14.398438 C 6.175781 14.503906 6.035156 14.5625 5.886719 14.5625 C 5.582031 14.5625 5.332031 14.3125 5.332031 14.007812 C 5.332031 13.867188 5.386719 13.726562 5.496094 13.617188 L 6.222656 12.890625 C 6.324219 12.792969 6.460938 12.738281 6.601562 12.738281 C 6.90625 12.738281 7.15625 12.988281 7.15625 13.292969 C 7.15625 13.433594 7.101562 13.574219 6.992188 13.683594 Z M 10.480469 15.75 C 10.480469 15.902344 10.417969 16.042969 10.320312 16.140625 C 10.105469 16.355469 9.75 16.355469 9.535156 16.140625 L 9.527344 16.128906 C 9.429688 16.027344 9.375 15.890625 9.375 15.75 L 9.375 14.738281 C 9.375 14.585938 9.4375 14.445312 9.535156 14.347656 C 9.753906 14.132812 10.105469 14.132812 10.320312 14.347656 C 10.421875 14.449219 10.480469 14.589844 10.480469 14.738281 Z M 14.410156 13.730469 C 14.511719 13.835938 14.570312 13.976562 14.570312 14.125 C 14.570312 14.425781 14.324219 14.675781 14.019531 14.675781 C 13.875 14.675781 13.734375 14.625 13.625 14.515625 L 12.910156 13.800781 C 12.808594 13.695312 12.75 13.554688 12.75 13.40625 C 12.75 13.101562 12.996094 12.855469 13.300781 12.855469 C 13.441406 12.855469 13.585938 12.910156 13.691406 13.015625 Z M 15.761719 9.527344 C 15.910156 9.527344 16.050781 9.589844 16.152344 9.691406 C 16.367188 9.90625 16.367188 10.257812 16.152344 10.472656 L 16.140625 10.484375 C 16.035156 10.582031 15.902344 10.636719 15.761719 10.636719 L 14.75 10.636719 C 14.59375 10.636719 14.457031 10.574219 14.355469 10.472656 C 14.140625 10.257812 14.140625 9.90625 14.355469 9.691406 C 14.460938 9.585938 14.601562 9.527344 14.75 9.527344 Z M 13.742188 5.601562 C 13.847656 5.496094 13.988281 5.4375 14.132812 5.4375 C 14.4375 5.4375 14.6875 5.6875 14.6875 5.992188 C 14.6875 6.132812 14.632812 6.277344 14.527344 6.382812 L 13.796875 7.109375 C 13.695312 7.207031 13.558594 7.261719 13.417969 7.261719 C 13.113281 7.261719 12.863281 7.011719 12.863281 6.707031 C 12.863281 6.566406 12.917969 6.425781 13.027344 6.316406 Z M 16.410156 2.332031 C 16.644531 2.523438 16.867188 2.726562 17.078125 2.9375 C 18.890625 4.746094 20.015625 7.25 20.015625 10 C 20.015625 12.75 18.890625 15.25 17.082031 17.0625 C 16.867188 17.273438 16.644531 17.476562 16.417969 17.667969 L 31.214844 17.667969 C 33.3125 17.667969 35.21875 16.816406 36.605469 15.445312 L 36.632812 15.417969 C 38.019531 14.027344 38.886719 12.109375 38.886719 10 C 38.886719 7.890625 38.019531 5.972656 36.632812 4.582031 C 35.242188 3.191406 33.324219 2.332031 31.214844 2.332031 Z M 10.003906 1.179688 L 10.015625 1.179688 C 14.867188 1.179688 18.835938 5.148438 18.835938 10 C 18.835938 14.851562 14.863281 18.820312 10.015625 18.820312 L 10.003906 18.820312 C 5.15625 18.820312 1.183594 14.851562 1.183594 10 C 1.183594 5.148438 5.152344 1.179688 10.003906 1.179688 Z M 10.003906 1.179688 "/>
</g>
</svg>
