<svg xmlns="http://www.w3.org/2000/svg" xmlns:xlink="http://www.w3.org/1999/xlink" width="39px" height="20px" viewBox="0 0 38 20" version="1.1">
<g id="surface1">
<path style=" stroke:none;fill-rule:nonzero;fill:#ffffff;fill-opacity:1;" d="M 23.511719 1.265625 L 8.230469 1.265625 C 5.964844 1.265625 3.910156 2.214844 2.417969 3.742188 C 0.925781 5.269531 0 7.375 0 9.695312 C 0 12.015625 0.925781 14.125 2.417969 15.652344 C 3.910156 17.179688 5.964844 18.128906 8.230469 18.128906 L 22.570312 18.128906 C 24.171875 19.300781 26.128906 19.996094 28.230469 19.996094 L 28.246094 19.996094 C 30.925781 19.996094 33.367188 18.871094 35.136719 17.058594 C 36.902344 15.25 38 12.75 38 10 C 38 7.25 36.902344 4.75 35.132812 2.941406 C 33.363281 1.128906 30.925781 0.00390625 28.246094 0.00390625 L 28.230469 0.00390625 C 26.523438 0.00390625 24.914062 0.464844 23.511719 1.265625 Z M 28.753906 8.652344 L 28.785156 8.660156 C 28.84375 8.398438 28.996094 8.1875 29.234375 8.039062 C 29.46875 7.890625 29.71875 7.84375 29.976562 7.90625 L 29.984375 7.875 C 29.726562 7.8125 29.523438 7.660156 29.375 7.414062 C 29.230469 7.171875 29.1875 6.917969 29.246094 6.652344 L 29.214844 6.644531 C 29.152344 6.910156 29.003906 7.117188 28.765625 7.269531 C 28.527344 7.417969 28.28125 7.464844 28.023438 7.402344 L 28.015625 7.433594 C 28.273438 7.496094 28.476562 7.648438 28.625 7.894531 C 28.769531 8.136719 28.8125 8.386719 28.753906 8.652344 Z M 31.488281 9.929688 L 31.527344 9.9375 C 31.605469 9.605469 31.792969 9.347656 32.089844 9.15625 C 32.390625 8.96875 32.699219 8.914062 33.023438 8.992188 L 33.03125 8.949219 C 32.710938 8.871094 32.457031 8.679688 32.269531 8.375 C 32.085938 8.066406 32.03125 7.75 32.109375 7.417969 L 32.070312 7.410156 C 31.992188 7.738281 31.804688 8 31.507812 8.1875 C 31.207031 8.378906 30.898438 8.433594 30.574219 8.355469 L 30.5625 8.394531 C 30.886719 8.472656 31.140625 8.667969 31.324219 8.972656 C 31.511719 9.277344 31.566406 9.597656 31.488281 9.929688 Z M 28.609375 5.289062 C 27.445312 5.871094 26.605469 7.058594 26.511719 8.476562 C 26.363281 10.597656 27.925781 12.4375 29.992188 12.585938 C 30.972656 12.65625 31.894531 12.332031 32.605469 11.746094 C 32.960938 11.457031 33.324219 11.714844 33.167969 12.078125 C 32.328125 14.089844 30.316406 15.429688 28.066406 15.265625 C 25.226562 15.0625 23.085938 12.535156 23.285156 9.625 C 23.476562 6.835938 25.757812 4.695312 28.457031 4.71875 C 28.957031 4.726562 29.0625 5.0625 28.609375 5.289062 Z M 28.230469 1.1875 L 28.246094 1.1875 C 32.976562 1.1875 36.847656 5.152344 36.847656 10 C 36.847656 14.847656 32.972656 18.8125 28.246094 18.8125 L 28.230469 18.8125 C 23.503906 18.8125 19.628906 14.847656 19.628906 10 C 19.628906 5.152344 23.5 1.1875 28.230469 1.1875 Z M 28.230469 1.1875 "/>
</g>
</svg>